<svg width="100%" height="100%" viewBox="0 0 500 310" xmlns="http://www.w3.org/2000/svg"><g class="axis axis--x" transform="translate(50, 50)" fill="none" font-size="10" font-family="sans-serif" text-anchor="middle"><path class="domain" stroke="currentColor" d="M0.5,-6V0.5H430.5V-6"></path><g class="tick" opacity="1" transform="translate(0.5,0)"><line stroke="currentColor" y2="-6"></line><text fill="currentColor" y="-9" dy="0em">1</text></g><g class="tick" opacity="1" transform="translate(430.5,0)"><line stroke="currentColor" y2="-6"></line><text fill="currentColor" y="-9" dy="0em">3</text></g></g><text style="text-anchor: middle" x="250" y="25"></text><g transform="translate(50, 50)"><g><rect x="-71.66666666666667" y="0" width="143.33333333333334" height="240" stroke="none" fill="transparent"><title>1
--
a: 10
b: 5
</title></rect><rect x="143.33333333333331" y="0" width="143.33333333333334" height="240" stroke="none" fill="transparent"><title>2
--
a: 20
b: 25
</title></rect><rect x="358.3333333333333" y="0" width="143.33333333333334" height="240" stroke="none" fill="transparent"><title>3
--
a: 15
b: 12
</title></rect></g><g transform="translate(0, 20)"><path d="M 0 100 L 215 0 z M 215 0 L 430 50 z " fill="none" stroke="mediumseagreen" stroke-width="1"></path><circle cx="0" cy="100" r="1" fill="mediumseagreen"><title>1
--
a: 10
b: 5
</title></circle><circle cx="215" cy="0" r="1" fill="mediumseagreen"><title>2
--
a: 20
b: 25
</title></circle><circle cx="430" cy="50" r="1" fill="mediumseagreen"><title>3
--
a: 15
b: 12
</title></circle></g><g transform="translate(0, 140)"><path d="M 0 100 L 215 0 z M 215 0 L 430 65 z " fill="none" stroke=" dodgerblue" stroke-width="1"></path><circle cx="0" cy="100" r="1" fill=" dodgerblue"><title>1
--
a: 10
b: 5
</title></circle><circle cx="215" cy="0" r="1" fill=" dodgerblue"><title>2
--
a: 20
b: 25
</title></circle><circle cx="430" cy="65" r="1" fill=" dodgerblue"><title>3
--
a: 15
b: 12
</title></circle></g></g><g transform="translate(0, 50)"><g class="axis axis--y" transform="translate(30, 20)" fill="none" font-size="10" font-family="sans-serif" text-anchor="end"><path class="domain" stroke="currentColor" d="M-6,100.5H0.5V0.5H-6"></path><g class="tick" opacity="1" transform="translate(0,100.5)"><line stroke="currentColor" x2="-6"></line><text fill="currentColor" x="-9" dy="0.32em">10</text></g><g class="tick" opacity="1" transform="translate(0,80.5)"><line stroke="currentColor" x2="-6"></line><text fill="currentColor" x="-9" dy="0.32em">12</text></g><g class="tick" opacity="1" transform="translate(0,60.5)"><line stroke="currentColor" x2="-6"></line><text fill="currentColor" x="-9" dy="0.32em">14</text></g><g class="tick" opacity="1" transform="translate(0,40.5)"><line stroke="currentColor" x2="-6"></line><text fill="currentColor" x="-9" dy="0.32em">16</text></g><g class="tick" opacity="1" transform="translate(0,20.499999999999996)"><line stroke="currentColor" x2="-6"></line><text fill="currentColor" x="-9" dy="0.32em">18</text></g><g class="tick" opacity="1" transform="translate(0,0.5)"><line stroke="currentColor" x2="-6"></line><text fill="currentColor" x="-9" dy="0.32em">20</text></g></g><g transform="translate(0, 70)"><text style="text-anchor: middle" transform="rotate(-90)">a</text></g><g class="axis axis--y" transform="translate(30, 140)" fill="none" font-size="10" font-family="sans-serif" text-anchor="end"><path class="domain" stroke="currentColor" d="M-6,100.5H0.5V0.5H-6"></path><g class="tick" opacity="1" transform="translate(0,100.5)"><line stroke="currentColor" x2="-6"></line><text fill="currentColor" x="-9" dy="0.32em">5</text></g><g class="tick" opacity="1" transform="translate(0,75.5)"><line stroke="currentColor" x2="-6"></line><text fill="currentColor" x="-9" dy="0.32em">10</text></g><g class="tick" opacity="1" transform="translate(0,50.5)"><line stroke="currentColor" x2="-6"></line><text fill="currentColor" x="-9" dy="0.32em">15</text></g><g class="tick" opacity="1" transform="translate(0,25.5)"><line stroke="currentColor" x2="-6"></line><text fill="currentColor" x="-9" dy="0.32em">20</text></g><g class="tick" opacity="1" transform="translate(0,0.5)"><line stroke="currentColor" x2="-6"></line><text fill="currentColor" x="-9" dy="0.32em">25</text></g></g><g transform="translate(0, 190)"><text style="text-anchor: middle" transform="rotate(-90)">b</text></g></g></svg>